Coordinates
version=1
nRows=16
nColumns=40
inDegrees=yes

Units are S.I. units (second, meters, Newtons, ...)
If the header above contains a line with 'inDegrees', this indicates whether rotational values are in degrees (yes) or radians (no).

endheader
time	pelvis_tilt	pelvis_list	pelvis_rotation	pelvis_tx	pelvis_ty	pelvis_tz	hip_flexion_r	hip_adduction_r	hip_rotation_r	knee_angle_r	knee_angle_r_beta	ankle_angle_r	subtalar_angle_r	mtp_angle_r	hip_flexion_l	hip_adduction_l	hip_rotation_l	knee_angle_l	knee_angle_l_beta	ankle_angle_l	subtalar_angle_l	mtp_angle_l	lumbar_extension	lumbar_bending	lumbar_rotation	arm_flex_r	arm_add_r	arm_rot_r	elbow_flex_r	pro_sup_r	wrist_flex_r	wrist_dev_r	arm_flex_l	arm_add_l	arm_rot_l	elbow_flex_l	pro_sup_l	wrist_flex_l	wrist_dev_l
      3.57500000	    -12.43153050	      4.91791132	      3.70445535	     -0.40030902	      0.90285916	     -0.72503082	     43.44876628	     -4.28560601	     -8.22625851	     51.89681906	      0.90577036	      6.03067511	      0.00000000	      0.00000000	     67.54042449	     -1.85828545	    -10.22479682	     45.88321582	      0.80081319	    -18.31233384	      0.00000000	      0.00000000	     -6.68093165	     -2.52883447	     -3.11914243	     89.92926655	     -7.73362249	     21.91320103	     40.19627479	     79.74084688	      0.00000000	      0.00000000	     89.89798147	    -12.18330471	     24.71089202	     38.60173574	     81.92422730	      0.00000000	      0.00000000
      3.58000000	    -12.65345771	      4.86244421	      3.75135619	     -0.40081768	      0.90184306	     -0.72511758	     43.84856374	     -4.32965140	     -8.38516933	     52.15629052	      0.91029900	      6.06507132	      0.00000000	      0.00000000	     67.92392108	     -1.92936025	    -10.31531879	     45.99461722	      0.80275751	    -18.45364333	      0.00000000	      0.00000000	     -6.51341888	     -2.48445019	     -3.11240059	     89.92968768	     -7.95148183	     21.97236225	     40.42040388	     82.73302937	      0.00000000	      0.00000000	     89.89944606	    -12.41966636	     25.06448893	     38.95283193	     85.20198806	      0.00000000	      0.00000000
      3.58500000	    -12.72547981	      4.81634606	      3.78390511	     -0.40132878	      0.90109064	     -0.72512432	     44.04107320	     -4.30756107	     -8.40022680	     52.33243860	      0.91337336	      6.18644884	      0.00000000	      0.00000000	     68.12080464	     -1.98005604	    -10.36540516	     46.04317544	      0.80360501	    -18.54533114	      0.00000000	      0.00000000	     -6.52561908	     -2.42631572	     -3.13932495	     89.93022749	     -7.88218650	     21.79060636	     40.48967117	     82.54596882	      0.00000000	      0.00000000	     89.90035681	    -12.42065447	     24.93357757	     39.02191021	     85.30910465	      0.00000000	      0.00000000
      3.59000000	    -12.73842035	      4.80230274	      3.78515618	     -0.40173644	      0.90036441	     -0.72512156	     44.18500691	     -4.30876081	     -8.40289093	     52.53527501	      0.91691352	      6.24956682	      0.00000000	      0.00000000	     68.09263922	     -1.99892123	    -10.55587439	     45.76198971	      0.79869739	    -18.20625039	      0.00000000	      0.00000000	     -6.59165756	     -2.41560010	     -3.14953364	     89.93069595	     -7.86217703	     21.65285080	     40.58295562	     82.84205131	      0.00000000	      0.00000000	     89.90079586	    -12.34739119	     24.79449438	     39.07985275	     85.03389151	      0.00000000	      0.00000000
      3.59500000	    -12.80793583	      4.78273145	      3.81893365	     -0.40217947	      0.89958721	     -0.72519355	     44.37234766	     -4.32451343	     -8.41648204	     52.71732777	      0.92009094	      6.36220753	      0.00000000	      0.00000000	     68.28006408	     -2.03140286	    -10.62865687	     45.81894236	      0.79969140	    -18.26662174	      0.00000000	      0.00000000	     -6.58991647	     -2.38764139	     -3.16948596	     89.93117227	     -7.83331540	     21.55614284	     40.69216656	     82.45104528	      0.00000000	      0.00000000	     89.90148361	    -12.31565546	     24.61975634	     39.12418052	     85.19588601	      0.00000000	      0.00000000
      3.60000000	    -12.91368697	      4.72981244	      3.86916596	     -0.40262219	      0.89876442	     -0.72529370	     44.59969991	     -4.32811537	     -8.46549763	     52.89262725	      0.92315050	      6.43764336	      0.00000000	      0.00000000	     68.50944394	     -2.06366323	    -10.67633008	     45.86380388	      0.80047439	    -18.33394938	      0.00000000	      0.00000000	     -6.54607378	     -2.33512166	     -3.22206544	     89.93152241	     -7.80094359	     21.38326438	     40.77748133	     83.26592621	      0.00000000	      0.00000000	     89.90200812	    -12.31244392	     24.57995280	     39.17138258	     84.88256586	      0.00000000	      0.00000000
      3.60500000	    -12.98675682	      4.71958558	      3.88352559	     -0.40312462	      0.89800893	     -0.72533067	     44.79841660	     -4.34360801	     -8.45647238	     53.06222228	      0.92611049	      6.53237092	      0.00000000	      0.00000000	     68.69036004	     -2.09734195	    -10.73361237	     45.89806029	      0.80107227	    -18.32287343	      0.00000000	      0.00000000	     -6.55853721	     -2.30327344	     -3.27451569	     89.93208711	     -7.70443972	     21.30086105	     40.86051521	     82.67946692	      0.00000000	      0.00000000	     89.90271610	    -12.34551261	     24.48702634	     39.24524144	     85.02018101	      0.00000000	      0.00000000
      3.61000000	    -13.05680773	      4.71914160	      3.91556733	     -0.40365710	      0.89729848	     -0.72537898	     44.99276353	     -4.38026172	     -8.47342570	     53.22459372	      0.92894440	      6.53812523	      0.00000000	      0.00000000	     68.83972065	     -2.10826440	    -10.80951090	     45.87237537	      0.80062399	    -18.32966300	      0.00000000	      0.00000000	     -6.56930048	     -2.31312195	     -3.28368363	     89.93248602	     -7.70644619	     21.32035269	     40.95082217	     82.02289581	      0.00000000	      0.00000000	     89.90333238	    -12.26152909	     24.27111712	     39.29799782	     85.29247509	      0.00000000	      0.00000000
      3.61500000	    -13.04472123	      4.75059822	      3.91665505	     -0.40416177	      0.89674643	     -0.72541186	     45.07171215	     -4.36172888	     -8.31195768	     53.31917754	      0.93059520	      6.62926831	      0.00000000	      0.00000000	     69.04518416	     -2.13333876	    -10.69255421	     46.18481065	      0.80607701	    -18.62835229	      0.00000000	      0.00000000	     -6.68327307	     -2.35121861	     -3.33408028	     89.93269518	     -7.48027399	     21.05433999	     40.97199538	     79.13735234	      0.00000000	      0.00000000	     89.90365292	    -11.96950638	     23.64148711	     39.09646933	     81.85984064	      0.00000000	      0.00000000
      3.62000000	    -13.25703514	      4.65258135	      3.99143252	     -0.40468809	      0.89575250	     -0.72556190	     45.45009996	     -4.39790491	     -8.49693066	     53.58139272	      0.93517172	      6.68751782	      0.00000000	      0.00000000	     69.42569856	     -2.18483047	    -10.73964599	     46.28089473	      0.80775399	    -18.71310686	      0.00000000	      0.00000000	     -6.52202395	     -2.22437070	     -3.36778806	     89.93328381	     -7.59697579	     21.07019973	     41.16465633	     81.54313772	      0.00000000	      0.00000000	     89.90495991	    -12.31195406	     24.15346303	     39.48265483	     85.14880466	      0.00000000	      0.00000000
      3.62500000	    -13.32310884	      4.60649586	      4.02695128	     -0.40513727	      0.89502253	     -0.72560331	     45.63489575	     -4.39132943	     -8.52858944	     53.74785856	      0.93807710	      6.74340722	      0.00000000	      0.00000000	     69.59397451	     -2.21321690	    -10.76599263	     46.28901610	      0.80789574	    -18.69357968	      0.00000000	      0.00000000	     -6.52398386	     -2.18744229	     -3.35155986	     89.93388224	     -7.62821044	     20.83568301	     41.19106926	     83.03662045	      0.00000000	      0.00000000	     89.90502288	    -12.15151232	     23.93297017	     39.44197699	     84.87209395	      0.00000000	      0.00000000
      3.63000000	    -13.41399572	      4.64184666	      4.05665207	     -0.40561118	      0.89429351	     -0.72567768	     45.86781199	     -4.45421699	     -8.49288603	     53.95823526	      0.94174886	      6.79850723	      0.00000000	      0.00000000	     69.76297575	     -2.19219767	    -10.82453938	     46.29139007	      0.80793717	    -18.60605862	      0.00000000	      0.00000000	     -6.52073388	     -2.23124877	     -3.40201945	     89.93454067	     -7.57607918	     20.83652767	     41.28850438	     81.73513833	      0.00000000	      0.00000000	     89.90544279	    -12.15416193	     23.78073149	     39.54844733	     85.26359132	      0.00000000	      0.00000000
      3.63500000	    -13.52176374	      4.61139957	      4.06854854	     -0.40609810	      0.89343010	     -0.72570558	     46.11084055	     -4.43795344	     -8.47862193	     54.14252421	      0.94496531	      6.87757455	      0.00000000	      0.00000000	     69.97527996	     -2.23718438	    -10.89811674	     46.30271211	      0.80813478	    -18.57502454	      0.00000000	      0.00000000	     -6.48475919	     -2.20567789	     -3.39719548	     89.93469649	     -7.59406498	     20.74851222	     41.40482022	     82.28152300	      0.00000000	      0.00000000	     89.90647926	    -12.06927028	     23.54247764	     39.58384199	     85.15013289	      0.00000000	      0.00000000
      3.64000000	    -13.45181256	      4.58260225	      4.05761999	     -0.40647788	      0.89283411	     -0.72567529	     46.12093386	     -4.38325509	     -8.42693347	     54.22931499	      0.94648010	      6.92864417	      0.00000000	      0.00000000	     69.97913521	     -2.27564612	    -10.90696765	     46.27845645	      0.80771144	    -18.47666248	      0.00000000	      0.00000000	     -6.62874742	     -2.17552155	     -3.40281509	     89.93518087	     -7.37309182	     20.83154774	     41.41552663	     76.14451181	      0.00000000	      0.00000000	     89.90668859	    -11.73942157	     23.36427810	     39.42439264	     78.07146123	      0.00000000	      0.00000000
      3.64500000	    -13.69887425	      4.56506615	      4.11091345	     -0.40699869	      0.89189518	     -0.72575731	     46.52435448	     -4.42925022	     -8.48615949	     54.45900766	      0.95048899	      6.97459855	      0.00000000	      0.00000000	     70.33371725	     -2.28336878	    -10.99414263	     46.30039320	      0.80809431	    -18.43631645	      0.00000000	      0.00000000	     -6.44437553	     -2.16763117	     -3.42637925	     89.93566464	     -7.53429356	     20.54521449	     41.54881769	     82.23414746	      0.00000000	      0.00000000	     89.90749780	    -11.99989433	     23.30921977	     39.69217874	     85.12920794	      0.00000000	      0.00000000
      3.65000000	    -13.73426437	      4.58236112	      4.13085868	     -0.40754587	      0.89125462	     -0.72579386	     46.65053585	     -4.44668607	     -8.43560965	     54.53857304	      0.95187767	      7.03166375	      0.00000000	      0.00000000	     70.42683892	     -2.26855137	    -11.05050241	     46.25493948	      0.80730099	    -18.32192385	      0.00000000	      0.00000000	     -6.50284519	     -2.16661962	     -3.47254734	     89.93591370	     -7.41825229	     20.38805443	     41.60696007	     81.56991087	      0.00000000	      0.00000000	     89.90884412	    -12.06992081	     23.29756547	     39.82600022	     85.12991730	      0.00000000	      0.00000000
